<mxfile host="app.diagrams.net" agent="Mozilla/5.0 (Windows NT 10.0; Win64; x64) AppleWebKit/537.36 (KHTML, like Gecko) Chrome/128.0.0.0 Safari/537.36" version="24.7.12">
  <diagram name="Página-1" id="57PSmOaE5k5AHZ8FgbBj">
    <mxGraphModel dx="1257" dy="620" grid="0" gridSize="10" guides="1" tooltips="1" connect="1" arrows="1" fold="1" page="1" pageScale="1" pageWidth="827" pageHeight="1169" math="0" shadow="0">
      <root>
        <mxCell id="0" />
        <mxCell id="1" parent="0" />
        <mxCell id="BxgWJfXppD0iS9xXCOOj-19" style="edgeStyle=orthogonalEdgeStyle;rounded=0;orthogonalLoop=1;jettySize=auto;html=1;entryX=0.5;entryY=0;entryDx=0;entryDy=0;" edge="1" parent="1" source="BxgWJfXppD0iS9xXCOOj-1" target="BxgWJfXppD0iS9xXCOOj-2">
          <mxGeometry relative="1" as="geometry" />
        </mxCell>
        <mxCell id="BxgWJfXppD0iS9xXCOOj-1" value="&lt;b&gt;&lt;font style=&quot;font-size: 14px;&quot;&gt;suma = suma + contador&lt;/font&gt;&lt;/b&gt;" style="rounded=0;whiteSpace=wrap;html=1;" vertex="1" parent="1">
          <mxGeometry x="324.5" y="707" width="173" height="60" as="geometry" />
        </mxCell>
        <mxCell id="BxgWJfXppD0iS9xXCOOj-22" style="edgeStyle=orthogonalEdgeStyle;rounded=0;orthogonalLoop=1;jettySize=auto;html=1;exitX=0.5;exitY=1;exitDx=0;exitDy=0;" edge="1" parent="1" source="BxgWJfXppD0iS9xXCOOj-2">
          <mxGeometry relative="1" as="geometry">
            <mxPoint x="404" y="466" as="targetPoint" />
            <Array as="points">
              <mxPoint x="411" y="895" />
              <mxPoint x="204" y="895" />
              <mxPoint x="204" y="642" />
              <mxPoint x="209" y="642" />
              <mxPoint x="209" y="469" />
              <mxPoint x="389" y="469" />
              <mxPoint x="389" y="466" />
            </Array>
          </mxGeometry>
        </mxCell>
        <mxCell id="BxgWJfXppD0iS9xXCOOj-2" value="&lt;b&gt;&lt;font style=&quot;font-size: 14px;&quot;&gt;contador = contador + 1&lt;/font&gt;&lt;/b&gt;" style="rounded=0;whiteSpace=wrap;html=1;" vertex="1" parent="1">
          <mxGeometry x="323" y="815" width="176" height="60" as="geometry" />
        </mxCell>
        <mxCell id="BxgWJfXppD0iS9xXCOOj-12" style="edgeStyle=orthogonalEdgeStyle;rounded=0;orthogonalLoop=1;jettySize=auto;html=1;exitX=0.5;exitY=1;exitDx=0;exitDy=0;entryX=0.5;entryY=0;entryDx=0;entryDy=0;" edge="1" parent="1" source="BxgWJfXppD0iS9xXCOOj-3" target="BxgWJfXppD0iS9xXCOOj-4">
          <mxGeometry relative="1" as="geometry" />
        </mxCell>
        <mxCell id="BxgWJfXppD0iS9xXCOOj-3" value="&lt;b&gt;&lt;font style=&quot;font-size: 14px;&quot;&gt;contador = 1&lt;/font&gt;&lt;/b&gt;" style="rounded=0;whiteSpace=wrap;html=1;" vertex="1" parent="1">
          <mxGeometry x="355" y="109" width="118" height="44" as="geometry" />
        </mxCell>
        <mxCell id="BxgWJfXppD0iS9xXCOOj-4" value="&lt;b&gt;&lt;font style=&quot;font-size: 14px;&quot;&gt;suma = 0&lt;/font&gt;&lt;/b&gt;" style="rounded=0;whiteSpace=wrap;html=1;" vertex="1" parent="1">
          <mxGeometry x="354" y="184" width="120" height="43" as="geometry" />
        </mxCell>
        <mxCell id="BxgWJfXppD0iS9xXCOOj-5" value="&lt;b&gt;&lt;font style=&quot;font-size: 14px;&quot;&gt;Fin&lt;/font&gt;&lt;/b&gt;" style="strokeWidth=2;html=1;shape=mxgraph.flowchart.terminator;whiteSpace=wrap;" vertex="1" parent="1">
          <mxGeometry x="364" y="1085" width="100" height="60" as="geometry" />
        </mxCell>
        <mxCell id="BxgWJfXppD0iS9xXCOOj-11" style="edgeStyle=orthogonalEdgeStyle;rounded=0;orthogonalLoop=1;jettySize=auto;html=1;exitX=0.5;exitY=1;exitDx=0;exitDy=0;exitPerimeter=0;entryX=0.5;entryY=0;entryDx=0;entryDy=0;" edge="1" parent="1" source="BxgWJfXppD0iS9xXCOOj-6" target="BxgWJfXppD0iS9xXCOOj-3">
          <mxGeometry relative="1" as="geometry" />
        </mxCell>
        <mxCell id="BxgWJfXppD0iS9xXCOOj-6" value="&lt;b&gt;&lt;font style=&quot;font-size: 14px;&quot;&gt;Inicio&lt;/font&gt;&lt;/b&gt;" style="strokeWidth=2;html=1;shape=mxgraph.flowchart.terminator;whiteSpace=wrap;" vertex="1" parent="1">
          <mxGeometry x="364" y="25" width="100" height="60" as="geometry" />
        </mxCell>
        <mxCell id="BxgWJfXppD0iS9xXCOOj-14" style="edgeStyle=orthogonalEdgeStyle;rounded=0;orthogonalLoop=1;jettySize=auto;html=1;entryX=0.5;entryY=0;entryDx=0;entryDy=0;" edge="1" parent="1" source="BxgWJfXppD0iS9xXCOOj-7" target="BxgWJfXppD0iS9xXCOOj-10">
          <mxGeometry relative="1" as="geometry" />
        </mxCell>
        <mxCell id="BxgWJfXppD0iS9xXCOOj-7" value="&lt;b&gt;&lt;font style=&quot;font-size: 14px;&quot;&gt;&quot;Ingrese un número&quot;&lt;/font&gt;&lt;/b&gt;" style="strokeWidth=2;html=1;shape=mxgraph.flowchart.display;whiteSpace=wrap;" vertex="1" parent="1">
          <mxGeometry x="354.5" y="275" width="119" height="66" as="geometry" />
        </mxCell>
        <mxCell id="BxgWJfXppD0iS9xXCOOj-8" value="&lt;div style=&quot;&quot;&gt;&lt;b style=&quot;background-color: initial; font-size: 14px;&quot;&gt;&amp;nbsp; &amp;nbsp; &amp;nbsp;&quot;La suma total desde 1 hasta su número seleccionado es de &quot;&lt;/b&gt;&lt;/div&gt;&lt;div style=&quot;font-size: 14px;&quot;&gt;&lt;b style=&quot;&quot;&gt;&lt;font style=&quot;font-size: 14px;&quot;&gt;suma&lt;/font&gt;&lt;/b&gt;&lt;/div&gt;" style="strokeWidth=2;html=1;shape=mxgraph.flowchart.display;whiteSpace=wrap;align=center;" vertex="1" parent="1">
          <mxGeometry x="239" y="957" width="350" height="101" as="geometry" />
        </mxCell>
        <mxCell id="BxgWJfXppD0iS9xXCOOj-17" style="edgeStyle=orthogonalEdgeStyle;rounded=0;orthogonalLoop=1;jettySize=auto;html=1;exitX=0.5;exitY=1;exitDx=0;exitDy=0;exitPerimeter=0;" edge="1" parent="1" source="BxgWJfXppD0iS9xXCOOj-9" target="BxgWJfXppD0iS9xXCOOj-16">
          <mxGeometry relative="1" as="geometry" />
        </mxCell>
        <mxCell id="BxgWJfXppD0iS9xXCOOj-9" value="&lt;b&gt;&lt;font style=&quot;font-size: 14px;&quot;&gt;contador &amp;lt;= número&lt;/font&gt;&lt;/b&gt;" style="strokeWidth=2;html=1;shape=mxgraph.flowchart.decision;whiteSpace=wrap;" vertex="1" parent="1">
          <mxGeometry x="324.5" y="477" width="173" height="139" as="geometry" />
        </mxCell>
        <mxCell id="BxgWJfXppD0iS9xXCOOj-10" value="&lt;b&gt;&lt;font style=&quot;font-size: 14px;&quot;&gt;número&lt;/font&gt;&lt;/b&gt;" style="shape=parallelogram;html=1;strokeWidth=2;perimeter=parallelogramPerimeter;whiteSpace=wrap;rounded=1;arcSize=12;size=0.23;" vertex="1" parent="1">
          <mxGeometry x="361" y="376" width="106" height="64" as="geometry" />
        </mxCell>
        <mxCell id="BxgWJfXppD0iS9xXCOOj-13" style="edgeStyle=orthogonalEdgeStyle;rounded=0;orthogonalLoop=1;jettySize=auto;html=1;exitX=0.5;exitY=1;exitDx=0;exitDy=0;entryX=0.5;entryY=0;entryDx=0;entryDy=0;entryPerimeter=0;" edge="1" parent="1" source="BxgWJfXppD0iS9xXCOOj-4" target="BxgWJfXppD0iS9xXCOOj-7">
          <mxGeometry relative="1" as="geometry" />
        </mxCell>
        <mxCell id="BxgWJfXppD0iS9xXCOOj-15" style="edgeStyle=orthogonalEdgeStyle;rounded=0;orthogonalLoop=1;jettySize=auto;html=1;exitX=0.5;exitY=1;exitDx=0;exitDy=0;entryX=0.5;entryY=0;entryDx=0;entryDy=0;entryPerimeter=0;" edge="1" parent="1" source="BxgWJfXppD0iS9xXCOOj-10" target="BxgWJfXppD0iS9xXCOOj-9">
          <mxGeometry relative="1" as="geometry" />
        </mxCell>
        <mxCell id="BxgWJfXppD0iS9xXCOOj-18" style="edgeStyle=orthogonalEdgeStyle;rounded=0;orthogonalLoop=1;jettySize=auto;html=1;entryX=0.5;entryY=0;entryDx=0;entryDy=0;" edge="1" parent="1" source="BxgWJfXppD0iS9xXCOOj-16" target="BxgWJfXppD0iS9xXCOOj-1">
          <mxGeometry relative="1" as="geometry" />
        </mxCell>
        <mxCell id="BxgWJfXppD0iS9xXCOOj-16" value="&lt;b&gt;&lt;font style=&quot;font-size: 14px;&quot;&gt;Verdadero&lt;/font&gt;&lt;/b&gt;" style="text;html=1;align=center;verticalAlign=middle;resizable=0;points=[];autosize=1;strokeColor=none;fillColor=none;" vertex="1" parent="1">
          <mxGeometry x="368" y="644" width="86" height="29" as="geometry" />
        </mxCell>
        <mxCell id="BxgWJfXppD0iS9xXCOOj-24" value="&lt;b&gt;&lt;font style=&quot;font-size: 14px;&quot;&gt;Falso&lt;/font&gt;&lt;/b&gt;" style="text;html=1;align=center;verticalAlign=middle;resizable=0;points=[];autosize=1;strokeColor=none;fillColor=none;" vertex="1" parent="1">
          <mxGeometry x="642" y="533" width="55" height="29" as="geometry" />
        </mxCell>
        <mxCell id="BxgWJfXppD0iS9xXCOOj-25" style="edgeStyle=orthogonalEdgeStyle;rounded=0;orthogonalLoop=1;jettySize=auto;html=1;entryX=0.044;entryY=0.488;entryDx=0;entryDy=0;entryPerimeter=0;" edge="1" parent="1" source="BxgWJfXppD0iS9xXCOOj-9" target="BxgWJfXppD0iS9xXCOOj-24">
          <mxGeometry relative="1" as="geometry" />
        </mxCell>
        <mxCell id="BxgWJfXppD0iS9xXCOOj-26" style="edgeStyle=orthogonalEdgeStyle;rounded=0;orthogonalLoop=1;jettySize=auto;html=1;entryX=0.546;entryY=-0.001;entryDx=0;entryDy=0;entryPerimeter=0;" edge="1" parent="1" source="BxgWJfXppD0iS9xXCOOj-24" target="BxgWJfXppD0iS9xXCOOj-8">
          <mxGeometry relative="1" as="geometry">
            <Array as="points">
              <mxPoint x="660" y="943" />
            </Array>
          </mxGeometry>
        </mxCell>
        <mxCell id="BxgWJfXppD0iS9xXCOOj-27" style="edgeStyle=orthogonalEdgeStyle;rounded=0;orthogonalLoop=1;jettySize=auto;html=1;exitX=0.5;exitY=1;exitDx=0;exitDy=0;exitPerimeter=0;entryX=0.5;entryY=0;entryDx=0;entryDy=0;entryPerimeter=0;" edge="1" parent="1" source="BxgWJfXppD0iS9xXCOOj-8" target="BxgWJfXppD0iS9xXCOOj-5">
          <mxGeometry relative="1" as="geometry" />
        </mxCell>
      </root>
    </mxGraphModel>
  </diagram>
</mxfile>
